<?xml version="1.0" standalone="no"?>
<!DOCTYPE svg PUBLIC "-//W3C//DTD SVG 1.1//EN" "http://www.w3.org/Graphics/SVG/1.1/DTD/svg11.dtd" >
<svg xmlns="http://www.w3.org/2000/svg" xmlns:xlink="http://www.w3.org/1999/xlink" version="1.1">
<metadata>
Created by FontForge 20200314 at Sat Dec 23 04:03:08 2006
 By www-data
2000 Albert-Jan Pool, published by Fontshop International for the FontFont library.
</metadata>
<defs>
<font id="DIN-BlackItalic" horiz-adv-x="528" >
  <font-face 
    font-family="DIN-BlackItalic"
    font-weight="500"
    font-style="italic"
    font-stretch="normal"
    units-per-em="1000"
    panose-1="0 0 0 0 0 0 0 0 0 0"
    ascent="800"
    descent="-200"
    x-height="538"
    cap-height="712"
    bbox="-168 -198 1132 1019"
    underline-thickness="102"
    underline-position="-183"
    stemh="20"
    stemv="156"
    unicode-range="U+0020-FB02"
  />
<missing-glyph horiz-adv-x="1000" 
 />
    <glyph glyph-name=".notdef" horiz-adv-x="1000" 
 />
    <glyph glyph-name="space" unicode=" " horiz-adv-x="211" 
 />
    <glyph glyph-name="exclam" unicode="!" horiz-adv-x="348" 
d="M379 712l-135 -475h-112l51 475h196zM254 161l-31 -161h-160l31 161h160z" />
    <glyph glyph-name="quotedbl" unicode="&#x22;" horiz-adv-x="464" 
d="M500 712l-47 -234h-140l47 234h140zM284 712l-47 -234h-139l46 234h140z" />
    <glyph glyph-name="numbersign" unicode="#" horiz-adv-x="689" 
d="M702 562l-28 -145h-78l-34 -98h59l-29 -145h-81l-61 -174h-168l62 174h-91l-62 -174h-167l61 174h-56l29 145h78l34 98h-59l29 145h81l55 158h167l-55 -158h91l55 158h168l-56 -158h56zM428 417h-91l-34 -98h91z" />
    <glyph glyph-name="dollar" unicode="$" horiz-adv-x="610" 
d="M635 627l-116 -102c-30 37 -70 45 -109 46l-26 -139l27 -7c125 -32 166 -91 166 -185c0 -183 -149 -237 -256 -246l-21 -108h-119l20 111c-98 5 -161 33 -216 97l120 105c34 -39 83 -55 143 -56l28 146l-24 6c-144 36 -167 120 -167 175c0 144 102 235 252 248l18 88h119
l-17 -92c76 -7 139 -37 178 -87zM329 572c-40 -8 -78 -36 -78 -77c0 -29 24 -42 54 -50zM410 216c0 38 -20 51 -55 60l-25 -134c48 10 80 39 80 74z" />
    <glyph glyph-name="percent" unicode="%" horiz-adv-x="826" 
d="M779 253c0 -6 -1 -19 -3 -30l-17 -90c-19 -101 -83 -139 -165 -139c-67 0 -124 39 -124 114c0 6 1 19 3 30l17 90c19 101 83 139 165 139c67 0 124 -39 124 -114zM726 712l-464 -712h-124l465 712h123zM395 604c0 -6 -1 -19 -3 -30l-17 -90c-19 -101 -83 -139 -165 -139
c-67 0 -124 39 -124 114c0 6 1 19 3 30l17 90c19 100 83 139 165 139c67 0 124 -39 124 -114zM668 239c0 10 -4 29 -28 29s-36 -19 -40 -41l-17 -88c-1 -6 -2 -11 -2 -17c0 -10 4 -29 28 -29s36 19 40 41l17 88c1 6 2 11 2 17zM284 590c0 10 -4 29 -28 29s-36 -19 -40 -41
l-17 -88c-1 -6 -2 -11 -2 -17c0 -10 4 -29 28 -29s36 19 40 41l17 88c1 6 2 11 2 17z" />
    <glyph glyph-name="ampersand" unicode="&#x26;" horiz-adv-x="682" 
d="M650 375c-22 -94 -63 -163 -123 -220l103 -155h-188l-34 51c-48 -36 -105 -57 -177 -57c-90 0 -199 38 -199 182c0 124 73 181 152 229c-30 48 -42 78 -42 120c0 69 38 193 220 193c168 0 177 -119 177 -160c0 -61 -44 -112 -95 -146l-58 -38l63 -98c26 25 44 65 54 99
h147zM390 551c0 21 -12 37 -36 37c-46 0 -55 -40 -55 -60s13 -41 21 -52c10 6 27 17 27 17c27 17 43 35 43 58zM334 167l-84 130c-37 -21 -63 -56 -63 -97c0 -39 27 -67 65 -67c34 0 64 19 82 34z" />
    <glyph glyph-name="quoteright" unicode="&#x2019;" horiz-adv-x="263" 
d="M300 712l-29 -147l-180 -118l53 265h156z" />
    <glyph glyph-name="parenleft" unicode="(" horiz-adv-x="340" 
d="M378 691c-15 -13 -48 -42 -64 -63c-13 -17 -24 -43 -32 -82l-76 -374c-5 -23 -8 -42 -8 -62c0 -26 10 -55 49 -100l-119 -104c-68 85 -86 124 -86 189c0 15 4 51 10 81l75 376c10 49 21 100 52 143c28 39 65 73 111 111z" />
    <glyph glyph-name="parenright" unicode=")" horiz-adv-x="340" 
d="M337 617c0 -15 -4 -51 -10 -81l-75 -376c-10 -49 -21 -100 -52 -143c-28 -39 -65 -73 -111 -111l-88 115c15 13 48 42 64 63c13 17 24 43 32 82l76 374c5 23 8 42 8 62c0 26 -10 55 -49 100l119 104c68 -85 86 -124 86 -189z" />
    <glyph glyph-name="asterisk" unicode="*" horiz-adv-x="481" 
d="M493 521l-111 -32l90 -72l-70 -78l-82 79l-17 -113l-102 20l27 112l-106 -42l-35 98l111 32l-90 72l70 78l82 -79l17 113l102 -20l-27 -112l106 42z" />
    <glyph glyph-name="plus" unicode="+" 
d="M501 356l-29 -146h-146l-31 -156h-146l31 156h-143l29 146h143l31 156h147l-32 -156h146z" />
    <glyph glyph-name="comma" unicode="," horiz-adv-x="282" 
d="M212 174l-45 -224l-190 -128l70 352h165z" />
    <glyph glyph-name="hyphen" unicode="-" horiz-adv-x="405" 
d="M380 368l-29 -146h-312l29 146h312z" />
    <glyph glyph-name="period" unicode="." horiz-adv-x="279" 
d="M209 180l-36 -180h-171l36 180h171z" />
    <glyph glyph-name="slash" unicode="/" horiz-adv-x="412" 
d="M523 786l-442 -860h-148l443 860h147z" />
    <glyph glyph-name="zero" unicode="0" 
d="M532 538c0 -12 -2 -35 -5 -50l-54 -272c-33 -166 -141 -222 -247 -222c-125 0 -191 84 -191 180c0 12 2 35 5 50l54 272c33 166 141 222 247 222c125 0 191 -84 191 -180zM377 525c0 40 -27 52 -51 52c-30 0 -63 -12 -76 -76l-56 -283c-2 -9 -4 -22 -4 -31
c0 -40 27 -52 51 -52c30 0 63 12 76 76l56 283c2 9 4 22 4 31z" />
    <glyph glyph-name="one" unicode="1" 
d="M476 712l-142 -712h-156l107 535l-168 -118l35 177l168 118h156z" />
    <glyph glyph-name="two" unicode="2" 
d="M533 533c0 -104 -78 -167 -117 -205l-193 -187h245l-29 -141h-444l29 140l293 288c39 39 58 60 58 96c0 34 -19 53 -51 53c-34 0 -66 -17 -80 -71h-156c24 141 115 212 255 212c117 0 190 -67 190 -185z" />
    <glyph glyph-name="three" unicode="3" 
d="M528 540c0 -67 -26 -133 -100 -177c39 -27 56 -59 56 -125c0 -145 -114 -244 -239 -244c-129 0 -219 67 -219 176c0 16 2 27 4 42h154c-2 -9 -2 -11 -2 -22c0 -30 20 -55 64 -55s81 46 81 95c0 36 -20 66 -62 66h-22l27 136h22c44 0 79 48 79 88c0 39 -21 57 -48 57
c-32 0 -69 -20 -80 -69h-156c30 142 120 210 257 210c112 0 184 -83 184 -178z" />
    <glyph glyph-name="four" unicode="4" 
d="M511 712l-317 -466h109l19 94h148l-19 -94h53l-30 -149h-50l-20 -97h-148l19 97h-286l30 149l317 466h175z" />
    <glyph glyph-name="five" unicode="5" 
d="M558 712l-28 -141h-269l-23 -117c29 20 56 25 88 25c116 0 167 -84 167 -169c0 -20 -2 -48 -6 -67c-11 -61 -33 -133 -84 -184c-38 -38 -93 -65 -173 -65c-113 0 -190 72 -190 176c0 6 1 26 3 43h149c-1 -7 -1 -13 -1 -19c0 -32 11 -59 51 -59c46 0 72 43 85 108
c4 21 6 35 6 46c0 32 -11 59 -51 59c-44 0 -64 -29 -75 -51h-142l83 415h410z" />
    <glyph glyph-name="six" unicode="6" 
d="M490 712l-196 -288c13 3 21 3 34 3c90 0 158 -70 158 -187c0 -139 -92 -246 -243 -246c-154 0 -215 108 -215 196c0 77 29 129 86 215l203 307h173zM330 234c0 49 -27 69 -64 69c-52 0 -82 -46 -82 -99c0 -49 27 -69 64 -69c52 0 82 46 82 99z" />
    <glyph glyph-name="seven" unicode="7" 
d="M587 712l-28 -141l-319 -571h-174l319 571h-147l-22 -109h-148l50 250h469z" />
    <glyph glyph-name="eight" unicode="8" 
d="M535 520c0 -73 -48 -136 -101 -166c17 -16 52 -51 52 -124c0 -135 -94 -236 -251 -236c-116 0 -210 62 -210 196c0 75 39 144 112 186c-21 22 -48 57 -48 124c0 117 93 218 241 218c120 0 205 -78 205 -198zM377 516c0 29 -17 61 -55 61c-41 0 -76 -33 -76 -85
c0 -29 17 -61 55 -61c41 0 76 33 76 85zM328 227c0 31 -18 68 -62 68c-45 0 -83 -37 -83 -92c0 -31 18 -68 62 -68c45 0 83 37 83 92z" />
    <glyph glyph-name="nine" unicode="9" 
d="M540 522c0 -77 -29 -129 -86 -215l-203 -307h-173l196 288c-13 -3 -21 -3 -34 -3c-90 0 -158 70 -158 187c0 139 92 246 243 246c154 0 215 -108 215 -196zM384 508c0 49 -27 69 -64 69c-52 0 -82 -46 -82 -99c0 -49 27 -69 64 -69c52 0 82 46 82 99z" />
    <glyph glyph-name="colon" unicode=":" horiz-adv-x="301" 
d="M282 433l-36 -180h-171l36 180h171zM232 180l-36 -180h-171l36 180h171z" />
    <glyph glyph-name="semicolon" unicode=";" horiz-adv-x="301" 
d="M282 433l-36 -180h-171l36 180h171zM228 174l-45 -224l-191 -128l71 352h165z" />
    <glyph glyph-name="less" unicode="&#x3c;" 
d="M526 568l-34 -173l-266 -101l227 -111l-32 -161l-397 217l27 132z" />
    <glyph glyph-name="equal" unicode="=" 
d="M527 486l-29 -146h-436l30 146h435zM481 250l-30 -146h-435l30 146h435z" />
    <glyph glyph-name="greater" unicode="&#x3e;" 
d="M511 351l-27 -132l-475 -197l34 173l266 101l-227 111l32 161z" />
    <glyph glyph-name="question" unicode="?" horiz-adv-x="511" 
d="M534 552c0 -71 -28 -121 -76 -172l-82 -87c-9 -9 -22 -26 -27 -47l-2 -9h-156l5 23c8 37 22 75 58 111l82 82c21 21 41 49 41 81c0 24 -15 44 -41 44c-45 0 -67 -25 -74 -63h-156c26 150 130 203 253 203c90 0 175 -62 175 -166zM336 161l-32 -161h-159l31 161h160z" />
    <glyph glyph-name="at" unicode="@" horiz-adv-x="747" 
d="M748 535c0 -22 -5 -60 -10 -86l-90 -449h-141l8 41c-35 -33 -67 -47 -107 -47c-95 0 -141 65 -141 130c0 26 5 56 14 102c18 89 28 146 82 193c35 31 76 39 117 39c47 0 79 -14 103 -43l7 36c3 14 5 27 5 40c0 28 -8 48 -22 62c-18 17 -45 25 -78 25h-116
c-47 0 -73 -8 -98 -30c-32 -28 -41 -62 -48 -97l-54 -270c-2 -10 -4 -20 -4 -38c0 -15 4 -30 19 -50l-123 -107c-38 47 -47 93 -47 124c0 25 3 51 6 66l55 278c18 89 42 152 84 195c47 48 115 69 217 69h152c83 0 133 -24 164 -56c38 -39 46 -91 46 -127zM551 279
c0 31 -16 49 -43 49c-38 0 -63 -22 -79 -102c-3 -17 -6 -34 -6 -53c0 -31 16 -49 43 -49c38 0 63 22 79 102c3 17 6 34 6 53z" />
    <glyph glyph-name="A" unicode="A" horiz-adv-x="622" 
d="M570 0h-169l-10 112h-211l-55 -112h-177l388 712h129zM378 247l-22 210l-108 -210h130z" />
    <glyph glyph-name="B" unicode="B" horiz-adv-x="620" 
d="M617 545c0 -66 -25 -137 -107 -185c34 -27 60 -56 60 -120c0 -147 -109 -240 -247 -240h-307l143 712h269c119 0 189 -67 189 -167zM448 512c0 24 -10 53 -51 53h-101l-27 -131h98c65 0 81 52 81 78zM402 232c0 27 -13 55 -54 55h-108l-28 -140h106c55 0 84 39 84 85z
" />
    <glyph glyph-name="C" unicode="C" horiz-adv-x="583" 
d="M601 491h-166c-1 41 -15 81 -69 81c-36 0 -54 -13 -72 -31c-23 -23 -40 -73 -63 -185c-8 -41 -19 -103 -19 -140c0 -49 28 -76 72 -76c53 0 84 40 100 81h171c-52 -156 -157 -227 -284 -227c-150 0 -227 101 -227 208c0 32 7 85 21 154c25 124 42 213 108 279
c63 63 138 83 204 83c153 0 224 -102 224 -227z" />
    <glyph glyph-name="D" unicode="D" horiz-adv-x="618" 
d="M614 510c0 -29 -5 -60 -23 -154c-35 -178 -50 -223 -110 -283c-48 -48 -116 -73 -203 -73h-262l143 712h239c131 0 216 -72 216 -202zM446 494c0 54 -36 72 -76 72h-74l-84 -420h73c37 0 63 12 83 32c21 21 32 48 57 178c16 82 21 121 21 138z" />
    <glyph glyph-name="E" unicode="E" horiz-adv-x="581" 
d="M618 712l-29 -146h-293l-27 -134h253l-29 -146h-253l-28 -140h299l-29 -146h-466l143 712h459z" />
    <glyph glyph-name="F" unicode="F" horiz-adv-x="566" 
d="M618 712l-29 -146h-293l-28 -139h250l-29 -146h-251l-56 -281h-166l143 712h459z" />
    <glyph glyph-name="G" unicode="G" horiz-adv-x="615" 
d="M608 488h-166c-2 50 -26 84 -72 84c-36 0 -62 -19 -75 -32c-33 -33 -43 -79 -65 -184c-9 -44 -19 -104 -19 -141c0 -61 37 -75 72 -75c57 0 105 45 119 114l3 15h-101l26 138h266l-18 -96c-21 -111 -44 -175 -104 -235c-57 -57 -131 -82 -202 -82
c-163 0 -228 110 -228 208c0 46 10 105 20 154c34 171 52 221 109 278s129 84 207 84c162 0 228 -116 228 -230z" />
    <glyph glyph-name="H" unicode="H" horiz-adv-x="646" 
d="M668 712l-143 -712h-166l58 287h-177l-58 -287h-166l143 712h166l-55 -278h177l55 278h166z" />
    <glyph glyph-name="I" unicode="I" horiz-adv-x="303" 
d="M325 712l-143 -712h-166l143 712h166z" />
    <glyph glyph-name="J" unicode="J" horiz-adv-x="490" 
d="M521 712l-96 -480c-44 -220 -208 -238 -270 -238c-95 0 -150 27 -195 83l119 102c19 -25 42 -39 77 -39c27 0 86 9 104 98l95 474h166z" />
    <glyph glyph-name="K" unicode="K" horiz-adv-x="645" 
d="M722 712l-288 -307l163 -405h-182l-116 298l-74 -69l-45 -229h-164l143 712h164l-51 -255l245 255h205z" />
    <glyph glyph-name="L" unicode="L" horiz-adv-x="552" 
d="M501 146l-29 -146h-456l143 712h166l-113 -566h289z" />
    <glyph glyph-name="M" unicode="M" horiz-adv-x="767" 
d="M790 712l-143 -712h-166l70 351l-127 -176h-106l-65 176l-71 -351h-166l143 712h155l91 -314l222 314h163z" />
    <glyph glyph-name="N" unicode="N" horiz-adv-x="667" 
d="M689 712l-143 -712h-138l-151 370l-75 -370h-166l143 712h138l152 -371l74 371h166z" />
    <glyph glyph-name="O" unicode="O" horiz-adv-x="608" 
d="M601 510c0 -32 -7 -85 -21 -154c-25 -124 -44 -214 -110 -280c-56 -56 -136 -82 -202 -82c-147 0 -224 101 -224 208c0 32 7 85 21 154c25 124 44 214 110 280c56 56 136 82 202 82c147 0 224 -101 224 -208zM433 496c0 49 -30 76 -70 76c-28 0 -54 -14 -72 -34
c-22 -24 -35 -61 -60 -182c-8 -41 -19 -103 -19 -140c0 -49 30 -76 70 -76c28 0 54 14 72 34c22 24 35 61 60 182c8 41 19 103 19 140z" />
    <glyph glyph-name="P" unicode="P" horiz-adv-x="596" 
d="M615 514c0 -123 -92 -250 -270 -250h-110l-53 -264h-166l143 712h259c115 0 197 -74 197 -198zM448 499c0 37 -16 66 -59 66h-93l-31 -154h87c75 0 96 62 96 88z" />
    <glyph glyph-name="Q" unicode="Q" horiz-adv-x="608" 
d="M601 510c0 -32 -7 -85 -21 -154c-22 -109 -39 -191 -87 -254l43 -57l-97 -85l-47 62c-40 -19 -85 -28 -124 -28c-147 0 -224 101 -224 208c0 32 7 85 21 154c25 124 44 214 110 280c56 56 136 82 202 82c147 0 224 -101 224 -208zM433 496c0 49 -30 76 -70 76
c-28 0 -54 -14 -72 -34c-22 -24 -35 -61 -60 -182c-8 -41 -19 -103 -19 -140c0 -49 30 -76 70 -76c6 0 12 1 18 2l-40 52l97 85l30 -39c8 27 16 64 27 116c8 41 19 103 19 140z" />
    <glyph glyph-name="R" unicode="R" horiz-adv-x="624" 
d="M616 506c0 -79 -48 -171 -154 -215l95 -291h-182l-75 270h-63l-55 -270h-166l143 712h253c149 0 204 -96 204 -206zM449 497c0 44 -24 67 -65 67h-88l-32 -156h87c79 0 98 60 98 89z" />
    <glyph glyph-name="S" unicode="S" horiz-adv-x="565" 
d="M591 629l-116 -102c-30 37 -69 46 -116 46c-68 0 -107 -42 -107 -78c0 -38 32 -46 61 -54l54 -14c125 -32 166 -90 166 -192c0 -172 -143 -241 -295 -241c-119 0 -190 27 -252 98l120 105c35 -40 85 -56 147 -56c65 0 113 36 113 77c0 38 -21 51 -60 61l-54 14
c-144 37 -166 120 -166 175c0 156 121 250 292 250c89 0 168 -31 213 -89z" />
    <glyph glyph-name="T" unicode="T" horiz-adv-x="557" 
d="M617 712l-30 -147h-163l-113 -565h-166l113 565h-170l30 147h499z" />
    <glyph glyph-name="U" unicode="U" horiz-adv-x="627" 
d="M660 712l-93 -463c-37 -186 -162 -255 -289 -255c-136 0 -227 87 -227 208c0 18 3 48 6 62l90 448h166l-92 -457c-2 -12 -4 -27 -4 -40c0 -40 21 -74 71 -74c68 0 101 48 116 122l90 449h166z" />
    <glyph glyph-name="V" unicode="V" horiz-adv-x="571" 
d="M663 712l-363 -712h-129l-81 712h164l38 -409l194 409h177z" />
    <glyph glyph-name="W" unicode="W" horiz-adv-x="864" 
d="M952 712l-324 -712h-135l-37 361l-186 -361h-135l-47 712h171l14 -386l188 386h118l34 -386l163 386h176z" />
    <glyph glyph-name="X" unicode="X" horiz-adv-x="610" 
d="M681 712l-264 -352l144 -360h-187l-74 224l-156 -224h-193l281 370l-134 342h186l65 -206l140 206h192z" />
    <glyph glyph-name="Y" unicode="Y" horiz-adv-x="585" 
d="M669 712l-288 -427l-57 -285h-166l58 290l-134 422h178l65 -266l161 266h183z" />
    <glyph glyph-name="Z" unicode="Z" horiz-adv-x="522" 
d="M580 712l-26 -127l-341 -438h260l-30 -147h-465l26 127l340 438h-247l29 147h454z" />
    <glyph glyph-name="bracketleft" unicode="[" horiz-adv-x="395" 
d="M457 786l-28 -140h-128l-116 -580h138l-28 -140h-293l171 860h284z" />
    <glyph glyph-name="backslash" unicode="\" horiz-adv-x="404" 
d="M338 -74h-140l-97 842h140z" />
    <glyph glyph-name="bracketright" unicode="]" horiz-adv-x="395" 
d="M431 786l-171 -860h-284l28 140h128l116 580h-138l28 140h293z" />
    <glyph glyph-name="asciicircum" unicode="^" horiz-adv-x="620" 
d="M588 375h-157l-56 177l-127 -177h-171l247 345h155z" />
    <glyph glyph-name="underscore" unicode="_" 
d="M461 -78l-21 -102h-528l20 102h529z" />
    <glyph glyph-name="quoteleft" unicode="&#x2018;" horiz-adv-x="263" 
d="M324 832l-53 -266h-156l29 146z" />
    <glyph glyph-name="a" unicode="a" horiz-adv-x="513" 
d="M485 389c0 -16 -3 -35 -6 -50l-68 -339h-150l9 44c-25 -25 -63 -49 -117 -49c-98 0 -150 74 -150 147c0 57 18 100 48 129c38 37 95 54 157 54h112l4 19c2 8 3 14 3 23c0 27 -17 47 -64 47c-45 0 -80 -20 -100 -43l-78 104c41 39 98 69 203 69c98 0 197 -42 197 -155z
M299 221h-76c-45 0 -67 -31 -67 -61c0 -22 16 -40 47 -40c29 0 52 13 67 28c14 14 22 36 26 58z" />
    <glyph glyph-name="b" unicode="b" horiz-adv-x="541" 
d="M519 395c0 -24 -6 -67 -17 -126c-19 -105 -36 -178 -84 -226c-32 -32 -80 -49 -133 -49c-65 0 -98 24 -119 53l-9 -47h-150l142 712h156l-42 -213c25 28 69 45 113 45c70 0 143 -40 143 -149zM357 350c0 16 -2 53 -47 53c-58 0 -75 -43 -93 -134c-5 -25 -11 -61 -11 -81
c0 -16 2 -53 47 -53c58 0 75 43 93 134c5 25 11 61 11 81z" />
    <glyph glyph-name="c" unicode="c" horiz-adv-x="453" 
d="M471 472l-118 -104c-16 21 -33 35 -57 35c-20 0 -39 -8 -54 -24c-22 -23 -39 -61 -48 -110c-4 -21 -7 -41 -7 -63c0 -39 11 -71 54 -71c28 0 51 13 74 36l86 -113c-43 -38 -106 -64 -177 -64c-89 0 -194 54 -194 191c0 28 3 57 8 84c44 240 179 275 273 275
c80 0 129 -34 160 -72z" />
    <glyph glyph-name="d" unicode="d" horiz-adv-x="541" 
d="M572 712l-142 -712h-150l9 45c-29 -32 -72 -51 -123 -51c-112 0 -141 86 -141 141c0 37 7 81 18 134c24 120 44 186 82 224c41 41 87 51 133 51c48 0 89 -17 115 -49l43 217h156zM339 350c0 16 -2 53 -47 53c-58 0 -75 -43 -93 -134c-5 -25 -11 -61 -11 -81
c0 -16 2 -53 47 -53c58 0 75 43 93 134c5 25 11 61 11 81z" />
    <glyph glyph-name="e" unicode="e" horiz-adv-x="533" 
d="M506 348c0 -41 -8 -87 -18 -129h-310c-1 -10 -2 -15 -2 -22c0 -43 26 -72 79 -72c45 0 82 18 115 50l78 -102c-54 -52 -133 -79 -212 -79c-87 0 -208 40 -208 191c0 191 95 359 277 359c114 0 201 -72 201 -196zM358 348c0 41 -21 68 -62 68s-78 -25 -98 -94h157
c2 8 3 20 3 26z" />
    <glyph glyph-name="f" unicode="f" horiz-adv-x="340" 
d="M408 723l-26 -131h-49c-24 0 -39 -14 -44 -40l-7 -37h85l-24 -120h-85l-79 -395h-156l79 395h-47l24 120h47l11 55c17 86 68 153 186 153h85z" />
    <glyph glyph-name="g" unicode="g" horiz-adv-x="533" 
d="M529 538l-99 -499c-27 -138 -119 -219 -262 -219c-82 0 -139 20 -187 74l108 94c12 -13 31 -36 79 -36c68 0 99 48 107 88l8 39c-25 -28 -61 -45 -105 -45c-70 0 -146 45 -146 144c0 26 7 66 15 111c20 108 37 165 74 202c40 40 87 53 135 53c57 0 91 -23 114 -53l9 47
h150zM332 353c0 29 -13 50 -46 50c-45 0 -65 -24 -83 -115c-6 -32 -8 -53 -8 -63c0 -29 13 -50 46 -50c45 0 65 24 83 115c6 32 8 53 8 63z" />
    <glyph glyph-name="h" unicode="h" horiz-adv-x="550" 
d="M518 396c0 -22 -3 -44 -7 -62l-67 -334h-156l65 325c2 9 3 19 3 27c0 36 -25 51 -45 51c-36 0 -71 -18 -83 -78l-65 -325h-156l142 712h156l-42 -209c33 26 76 41 120 41c56 0 135 -36 135 -148z" />
    <glyph glyph-name="i" unicode="i" horiz-adv-x="274" 
d="M305 712l-24 -121h-156l24 121h156zM266 517l-103 -517h-156l103 517h156z" />
    <glyph glyph-name="j" unicode="j" horiz-adv-x="274" 
d="M305 712l-24 -121h-156l24 121h156zM266 517l-107 -538c-19 -95 -81 -159 -181 -159h-93l27 132h51c23 0 38 18 42 39l105 526h156z" />
    <glyph glyph-name="k" unicode="k" horiz-adv-x="547" 
d="M591 538l-232 -232l141 -306h-178l-81 209l-45 -40l-33 -169h-156l142 712h156l-72 -362l176 188h182z" />
    <glyph glyph-name="l" unicode="l" horiz-adv-x="327" 
d="M299 712l-108 -542c-1 -6 -2 -9 -2 -15c0 -15 10 -23 29 -23h57l-27 -132h-77c-89 0 -140 55 -140 125c0 16 1 29 4 44l108 543h156z" />
    <glyph glyph-name="m" unicode="m" horiz-adv-x="831" 
d="M799 396c0 -25 -4 -46 -7 -62l-67 -334h-156l65 325c2 9 3 19 3 27c0 36 -25 51 -45 51c-36 0 -71 -18 -83 -78l-65 -325h-156l65 325c2 9 3 19 3 27c0 36 -25 51 -45 51c-36 0 -71 -18 -83 -78l-65 -325h-156l107 538h149l-9 -47c34 34 85 53 132 53
c27 0 76 -10 106 -58c33 30 75 58 158 58c66 0 149 -44 149 -148z" />
    <glyph glyph-name="n" unicode="n" horiz-adv-x="550" 
d="M518 396c0 -22 -3 -44 -7 -62l-67 -334h-156l65 325c2 9 3 19 3 27c0 36 -25 51 -45 51c-36 0 -71 -18 -83 -78l-65 -325h-156l107 538h149l-9 -47c34 34 85 53 132 53c53 0 132 -36 132 -148z" />
    <glyph glyph-name="o" unicode="o" horiz-adv-x="522" 
d="M492 366c0 -33 -6 -72 -11 -97c-20 -107 -44 -162 -93 -211c-38 -38 -97 -64 -171 -64c-93 0 -187 57 -187 178c0 33 6 72 11 97c20 107 44 162 93 211c38 38 97 64 171 64c93 0 187 -57 187 -178zM337 347c0 35 -16 56 -48 56c-20 0 -36 -6 -48 -18
c-22 -21 -34 -61 -45 -116c-10 -53 -11 -71 -11 -78c0 -35 16 -56 48 -56c20 0 36 6 48 18c22 21 34 61 45 116c10 53 11 71 11 78z" />
    <glyph glyph-name="p" unicode="p" horiz-adv-x="541" 
d="M519 405c0 -24 -1 -50 -18 -136c-24 -120 -44 -186 -82 -224c-41 -41 -87 -51 -133 -51c-48 0 -89 17 -115 49l-43 -217h-156l142 712h150l-9 -45c29 32 72 51 123 51c112 0 141 -86 141 -139zM356 350c0 16 -2 53 -47 53c-58 0 -75 -43 -93 -134c-5 -25 -11 -61 -11 -81
c0 -16 2 -53 47 -53c58 0 75 43 93 134c5 25 11 61 11 81z" />
    <glyph glyph-name="q" unicode="q" horiz-adv-x="541" 
d="M537 538l-142 -712h-156l42 213c-25 -28 -69 -45 -113 -45c-70 0 -143 40 -143 149c0 24 6 67 17 126c19 105 36 178 84 226c32 32 80 49 133 49c65 0 98 -24 119 -53l9 47h150zM338 350c0 16 -2 53 -47 53c-58 0 -75 -43 -93 -134c-5 -25 -11 -61 -11 -81
c0 -16 2 -53 47 -53c58 0 75 43 93 134c5 25 11 61 11 81z" />
    <glyph glyph-name="r" unicode="r" horiz-adv-x="449" 
d="M496 493l-136 -121c-7 7 -20 30 -50 30c-36 0 -73 -29 -83 -80l-64 -322h-156l107 538h150l-9 -46c28 32 77 52 128 52s84 -16 113 -51z" />
    <glyph glyph-name="s" unicode="s" horiz-adv-x="477" 
d="M474 474l-106 -94c-19 24 -61 36 -90 36c-51 0 -72 -19 -72 -41c0 -15 10 -25 33 -29l68 -12c96 -17 130 -73 130 -144c0 -61 -26 -105 -60 -137c-45 -43 -121 -59 -189 -59c-100 0 -164 30 -212 82l111 98c22 -26 56 -46 111 -46s84 22 84 44c0 19 -14 28 -37 32l-68 12
c-90 16 -127 70 -127 124s19 103 57 141c42 42 108 63 184 63c79 0 135 -18 183 -70z" />
    <glyph glyph-name="t" unicode="t" horiz-adv-x="348" 
d="M357 517l-24 -121h-80l-45 -228c-1 -4 -1 -11 -1 -12c0 -18 12 -25 31 -25h49l-26 -131h-73c-89 0 -140 55 -140 125c0 20 2 34 4 44l45 227h-47l24 121h47l31 154h156l-31 -154h80z" />
    <glyph glyph-name="u" unicode="u" horiz-adv-x="550" 
d="M545 538l-107 -538h-149l9 47c-34 -34 -85 -53 -132 -53c-53 0 -132 36 -132 148c0 22 3 44 7 62l67 334h156l-65 -325c-2 -9 -3 -19 -3 -27c0 -36 25 -51 45 -51c36 0 71 18 83 78l65 325h156z" />
    <glyph glyph-name="v" unicode="v" horiz-adv-x="495" 
d="M550 538l-295 -538h-119l-81 538h154l30 -300l145 300h166z" />
    <glyph glyph-name="w" unicode="w" horiz-adv-x="738" 
d="M790 538l-255 -538h-118l-38 300l-155 -300h-122l-47 538h155l11 -284l143 284h110l33 -284l117 284h166z" />
    <glyph glyph-name="x" unicode="x" 
d="M569 538l-217 -269l128 -269h-180l-55 143l-103 -143h-193l230 276l-124 262h180l51 -137l93 137h190z" />
    <glyph glyph-name="y" unicode="y" horiz-adv-x="488" 
d="M547 538l-324 -602c-10 -18 -26 -44 -44 -62c-38 -39 -81 -54 -136 -54h-58l29 142h32c29 0 44 18 60 48l23 43l-75 485h154l30 -300l145 300h164z" />
    <glyph glyph-name="z" unicode="z" horiz-adv-x="473" 
d="M489 538l-23 -116l-249 -281h199l-28 -141h-409l24 116l245 281h-184l28 141h397z" />
    <glyph glyph-name="braceleft" unicode="{" horiz-adv-x="492" 
d="M554 786l-28 -140h-59c-63 0 -75 -18 -87 -78l-23 -112c-14 -69 -55 -91 -90 -97c26 -11 52 -32 52 -81c0 -8 -1 -17 -3 -27l-21 -107c-3 -17 -5 -30 -5 -41c0 -31 20 -37 59 -37h71l-28 -140h-129c-98 0 -137 76 -137 136c0 17 1 24 3 33l25 123c6 28 5 48 -4 60
s-25 18 -50 18h-55l28 140h55c25 0 43 6 57 18s22 32 28 60l23 113c8 41 24 89 64 122c31 26 76 37 123 37h131z" />
    <glyph glyph-name="bar" unicode="|" horiz-adv-x="346" 
d="M356 786l-172 -860h-156l172 860h156z" />
    <glyph glyph-name="braceright" unicode="}" horiz-adv-x="492" 
d="M485 416l-28 -140h-55c-25 0 -43 -6 -57 -18s-22 -32 -28 -60l-23 -113c-8 -41 -24 -89 -64 -122c-31 -26 -76 -37 -123 -37h-131l28 140h59c63 0 75 18 87 78l23 112c14 69 55 91 90 97c-26 11 -52 32 -52 81c0 8 1 17 3 27l21 107c3 17 5 30 5 41c0 31 -20 37 -59 37
h-71l28 140h129c98 0 137 -76 137 -136c0 -17 -1 -24 -3 -33l-25 -123c-6 -28 -5 -48 4 -60s25 -18 50 -18h55z" />
    <glyph glyph-name="asciitilde" unicode="~" horiz-adv-x="614" 
d="M593 278c-85 -79 -150 -85 -192 -85c-45 0 -81 14 -111 32c-28 17 -52 25 -79 25c-28 0 -62 -6 -97 -41l-81 105c85 79 150 85 192 85c45 0 81 -14 111 -32c28 -17 52 -25 79 -25c28 0 62 6 97 41z" />
    <glyph glyph-name="exclamdown" unicode="&#xa1;" horiz-adv-x="348" 
d="M288 538l-31 -161h-160l31 161h160zM219 301l-51 -475h-196l135 475h112z" />
    <glyph glyph-name="cent" unicode="&#xa2;" horiz-adv-x="488" 
d="M523 551l-115 -95c-9 12 -24 27 -43 33l-51 -252c21 3 41 17 59 34l84 -103c-45 -39 -77 -60 -152 -75l-19 -93h-120l20 98c-58 17 -135 84 -135 203c0 149 79 314 242 333l16 78h119l-16 -81c53 -15 88 -49 111 -80zM283 490c-37 -10 -75 -97 -75 -176
c0 -30 5 -50 13 -61c3 -4 9 -9 13 -11z" />
    <glyph glyph-name="sterling" unicode="&#xa3;" horiz-adv-x="568" 
d="M598 638l-124 -107c-15 28 -36 40 -71 40c-78 0 -96 -58 -104 -97l-15 -73h91l-24 -119h-90l-27 -135h275l-29 -147h-442l57 282h-57l23 119h57l16 77c28 133 97 240 282 240c78 0 143 -28 182 -80z" />
    <glyph glyph-name="fraction" unicode="&#x2044;" horiz-adv-x="213" 
d="M419 712l-464 -712h-123l464 712h123z" />
    <glyph glyph-name="yen" unicode="&#xa5;" horiz-adv-x="585" 
d="M669 712l-171 -254h62l-24 -118h-118l-37 -55l-9 -45h144l-24 -118h-143l-25 -122h-166l25 122h-142l24 118h141l10 50l-15 50h-116l23 118h55l-81 254h178l65 -266l161 266h183z" />
    <glyph glyph-name="florin" unicode="&#x192;" horiz-adv-x="419" 
d="M482 722l-26 -129h-75c-21 0 -36 -12 -44 -33l-56 -156h87l-24 -118h-106l-169 -460h-156l169 460h-48l23 118h69l58 160c47 129 120 158 219 158h79z" />
    <glyph glyph-name="section" unicode="&#xa7;" horiz-adv-x="490" 
d="M476 570c0 -7 -1 -21 -2 -27h-137c2 36 -16 42 -39 42c-37 0 -49 -25 -49 -47c0 -18 11 -32 43 -46l45 -20c57 -25 102 -81 102 -152c0 -78 -31 -143 -105 -188c27 -24 47 -50 47 -117c0 -84 -50 -195 -221 -195c-91 0 -165 58 -165 147c0 11 1 21 2 33h142
c-3 -23 9 -44 41 -44c23 0 53 12 53 54c0 18 -8 39 -45 56l-44 20c-64 29 -103 83 -103 152c0 78 39 150 108 188c-31 31 -42 61 -42 114c0 74 51 178 208 178c103 0 161 -59 161 -148zM297 301c0 40 -26 48 -43 48c-20 0 -30 -6 -37 -12c-12 -9 -24 -26 -30 -58
c-1 -7 -3 -14 -3 -22c0 -40 26 -48 43 -48c20 0 30 6 37 12c12 9 24 26 30 58c1 7 3 14 3 22z" />
    <glyph glyph-name="currency" unicode="&#xa4;" horiz-adv-x="654" 
d="M652 491h-166c-1 41 -15 81 -69 81c-36 0 -54 -13 -72 -31c-11 -11 -21 -29 -31 -57h103l-19 -96h-109l-13 -62h111l-18 -96h-106v-14c0 -49 28 -76 72 -76c53 0 84 40 100 81h171c-52 -156 -157 -227 -284 -227c-150 0 -227 101 -227 208c0 13 1 21 2 28h-72l18 96h68
l12 62h-68l18 96h72c17 61 38 110 79 151c63 63 138 83 204 83c153 0 224 -102 224 -227z" />
    <glyph glyph-name="quotesingle" unicode="'" horiz-adv-x="249" 
d="M285 712l-47 -234h-140l46 234h141z" />
    <glyph glyph-name="quotedblleft" unicode="&#x201c;" horiz-adv-x="485" 
d="M546 832l-54 -266h-155l29 146zM323 832l-53 -266h-155l29 146z" />
    <glyph glyph-name="guillemotleft" unicode="&#xab;" horiz-adv-x="638" 
d="M639 547l-40 -199l-95 -81l62 -82l-34 -176l-206 271zM345 547l-40 -199l-95 -81l62 -82l-34 -176l-206 271z" />
    <glyph glyph-name="guilsinglleft" unicode="&#x2039;" horiz-adv-x="345" 
d="M345 547l-40 -199l-95 -81l62 -82l-34 -176l-206 271z" />
    <glyph glyph-name="guilsinglright" unicode="&#x203a;" horiz-adv-x="345" 
d="M320 276l-313 -267l40 199l95 81l-62 82l34 176z" />
    <glyph glyph-name="fi" unicode="&#xfb01;" horiz-adv-x="600" 
d="M631 712l-24 -121h-156l24 121h156zM592 517l-103 -517h-156l103 517h156zM408 723l-26 -131h-49c-24 0 -39 -14 -44 -40l-7 -35h85l-24 -120h-85l-79 -397h-156l79 397h-47l24 120h47l11 53c18 85 68 153 186 153h85z" />
    <glyph glyph-name="fl" unicode="&#xfb02;" horiz-adv-x="659" 
d="M631 712l-108 -542c-1 -6 -2 -9 -2 -15c0 -15 10 -23 29 -23h57l-27 -132h-77c-89 0 -140 55 -140 125c0 16 1 29 4 44l108 543h156zM408 723l-26 -131h-49c-24 0 -39 -14 -44 -40l-7 -37h85l-24 -120h-85l-79 -395h-156l79 395h-47l24 120h47l11 55
c17 86 68 153 186 153h85z" />
    <glyph glyph-name="endash" unicode="&#x2013;" 
d="M503 368l-29 -146h-435l29 146h435z" />
    <glyph glyph-name="dagger" unicode="&#x2020;" horiz-adv-x="536" 
d="M547 538l-28 -140h-146l-79 -398h-156l80 398h-146l28 140h145l35 174h156l-35 -174h146z" />
    <glyph glyph-name="daggerdbl" unicode="&#x2021;" horiz-adv-x="536" 
d="M547 538l-28 -140h-146l-50 -250h146l-28 -140h-146l-36 -182h-156l37 182h-146l28 140h146l50 250h-146l28 140h145l35 174h156l-35 -174h146z" />
    <glyph glyph-name="periodcentered" unicode="&#xb7;" horiz-adv-x="279" 
d="M249 381l-34 -172h-171l34 172h171z" />
    <glyph glyph-name="paragraph" unicode="&#xb6;" horiz-adv-x="672" 
d="M694 712l-178 -886h-155l148 740h-86l-148 -740h-156l99 492c-48 5 -142 57 -142 182c0 104 70 212 262 212h356z" />
    <glyph glyph-name="bullet" unicode="&#x2022;" horiz-adv-x="447" 
d="M391 334c0 -90 -63 -153 -153 -153s-153 63 -153 153s63 153 153 153s153 -63 153 -153z" />
    <glyph glyph-name="quotesinglbase" unicode="&#x201a;" horiz-adv-x="263" 
d="M187 147l-29 -147l-179 -118l53 265h155z" />
    <glyph glyph-name="quotedblbase" unicode="&#x201e;" horiz-adv-x="485" 
d="M409 147l-30 -147l-179 -118l53 265h156zM186 147l-29 -147l-178 -118l53 265h154z" />
    <glyph glyph-name="quotedblright" unicode="&#x201d;" horiz-adv-x="485" 
d="M522 712l-30 -147l-179 -118l53 265h156zM299 712l-29 -147l-179 -118l53 265h155z" />
    <glyph glyph-name="guillemotright" unicode="&#xbb;" horiz-adv-x="638" 
d="M614 276l-313 -267l40 199l95 81l-62 82l34 176zM320 276l-313 -267l40 199l95 81l-62 82l34 176z" />
    <glyph glyph-name="ellipsis" unicode="&#x2026;" horiz-adv-x="854" 
d="M780 162l-32 -162h-162l33 162h161zM488 162l-33 -162h-161l32 162h162zM196 162l-32 -162h-162l33 162h161z" />
    <glyph glyph-name="perthousand" unicode="&#x2030;" horiz-adv-x="1180" 
d="M1132 253c0 -6 -1 -19 -3 -30l-17 -90c-19 -101 -83 -139 -165 -139c-67 0 -124 39 -124 114c0 6 1 19 3 30l17 90c19 101 83 139 165 139c67 0 124 -39 124 -114zM779 253c0 -6 -1 -19 -3 -30l-17 -90c-19 -101 -83 -139 -165 -139c-67 0 -124 39 -124 114
c0 6 1 19 3 30l17 90c19 101 83 139 165 139c67 0 124 -39 124 -114zM726 712l-464 -712h-124l465 712h123zM395 604c0 -6 -1 -19 -3 -30l-17 -90c-19 -101 -83 -139 -165 -139c-67 0 -124 39 -124 114c0 6 1 19 3 30l17 90c19 100 83 139 165 139c67 0 124 -39 124 -114z
M1021 239c0 10 -4 29 -28 29s-36 -19 -40 -41l-17 -88c-1 -6 -2 -11 -2 -17c0 -10 4 -29 28 -29s36 19 40 41l17 88c1 6 2 11 2 17zM668 239c0 10 -4 29 -28 29s-36 -19 -40 -41l-17 -88c-1 -6 -2 -11 -2 -17c0 -10 4 -29 28 -29s36 19 40 41l17 88c1 6 2 11 2 17zM284 590
c0 10 -4 29 -28 29s-36 -19 -40 -41l-17 -88c-1 -6 -2 -11 -2 -17c0 -10 4 -29 28 -29s36 19 40 41l17 88c1 6 2 11 2 17z" />
    <glyph glyph-name="questiondown" unicode="&#xbf;" horiz-adv-x="511" 
d="M371 538l-31 -161h-160l32 161h159zM410 23c-26 -150 -130 -203 -253 -203c-90 0 -175 62 -175 166c0 71 28 121 76 172l82 87c9 9 22 26 27 47l2 9h156l-5 -23c-8 -37 -22 -75 -58 -111l-82 -82c-21 -21 -41 -49 -41 -81c0 -24 15 -44 41 -44c45 0 67 25 74 63h156z" />
    <glyph glyph-name="grave" unicode="`" horiz-adv-x="475" 
d="M360 608h-91l-75 177h156z" />
    <glyph glyph-name="acute" unicode="&#xb4;" horiz-adv-x="475" 
d="M492 785l-145 -177h-95l81 177h159z" />
    <glyph glyph-name="circumflex" unicode="&#x2c6;" horiz-adv-x="475" 
d="M496 610h-109l-56 87l-93 -87h-120l165 179h120z" />
    <glyph glyph-name="tilde" unicode="&#x2dc;" horiz-adv-x="475" 
d="M508 680c-38 -36 -70 -55 -119 -55c-38 0 -61 10 -82 21c-19 10 -34 16 -53 16c-28 0 -47 -14 -62 -29l-54 72c38 36 70 55 119 55c38 0 61 -10 82 -21c19 -10 34 -16 53 -16c28 0 47 14 62 29z" />
    <glyph glyph-name="macron" unicode="&#xaf;" horiz-adv-x="475" 
d="M488 738l-20 -99h-310l20 99h310z" />
    <glyph glyph-name="breve" unicode="&#x2d8;" horiz-adv-x="475" 
d="M491 750c-22 -112 -81 -157 -173 -157c-86 0 -141 58 -141 120c0 15 1 28 3 37h99c-3 -38 22 -53 47 -53c32 0 54 13 63 53h102z" />
    <glyph glyph-name="dotaccent" unicode="&#x2d9;" horiz-adv-x="475" 
d="M406 712l-25 -121h-155l24 121h156z" />
    <glyph glyph-name="dieresis" unicode="&#xa8;" horiz-adv-x="475" 
d="M506 749l-28 -142h-128l29 142h127zM291 749l-28 -142h-127l28 142h127z" />
    <glyph glyph-name="ring" unicode="&#x2da;" horiz-adv-x="475" 
d="M459 725c0 -76 -60 -132 -132 -132s-132 56 -132 132s60 132 132 132s132 -55 132 -132zM378 725c0 28 -24 51 -51 51s-51 -23 -51 -51s24 -51 51 -51s51 23 51 51z" />
    <glyph glyph-name="cedilla" unicode="&#xb8;" horiz-adv-x="475" 
d="M254 -56l-61 -142h-140l91 142h110z" />
    <glyph glyph-name="hungarumlaut" unicode="&#x2dd;" horiz-adv-x="475" 
d="M555 785l-145 -177h-95l81 177h159zM333 785l-145 -177h-95l81 177h159z" />
    <glyph glyph-name="ogonek" unicode="&#x2db;" horiz-adv-x="475" 
d="M229 -198h-135l-6 142h106z" />
    <glyph glyph-name="caron" unicode="&#x2c7;" horiz-adv-x="475" 
d="M533 789l-165 -179h-120l-94 179h110l56 -87l93 87h120z" />
    <glyph glyph-name="emdash" unicode="&#x2014;" horiz-adv-x="1038" 
d="M1015 374l-30 -150h-946l30 150h946z" />
    <glyph glyph-name="AE" unicode="&#xc6;" horiz-adv-x="973" 
d="M1010 712l-29 -145h-294l-26 -135h252l-29 -145h-253l-28 -142h298l-29 -145h-464l31 157h-200l-108 -157h-183l494 712h568zM521 566l-187 -271h133z" />
    <glyph glyph-name="ordfeminine" unicode="&#xaa;" horiz-adv-x="434" 
d="M451 594c0 -13 -3 -28 -5 -40l-55 -271h-120l8 35c-20 -20 -51 -39 -96 -39c-77 0 -117 59 -117 121c0 43 14 77 41 102c28 26 70 41 122 41h90l3 15c1 7 2 12 2 19c0 22 -13 37 -51 37c-36 0 -64 -16 -80 -34l-62 83c33 31 78 55 162 55c78 0 158 -34 158 -124zM302 461
h-61c-36 0 -55 -26 -55 -48c0 -20 14 -34 40 -34c22 0 40 9 53 22c11 11 16 29 20 47z" />
    <glyph glyph-name="Lslash" unicode="&#x141;" horiz-adv-x="574" 
d="M523 146l-29 -146h-456l44 218l-64 -37l29 146l64 37l70 348h166l-48 -241l121 71l-29 -147l-121 -70l-36 -179h289z" />
    <glyph glyph-name="Oslash" unicode="&#xd8;" horiz-adv-x="612" 
d="M639 756l-77 -120c28 -36 42 -80 42 -126c0 -32 -7 -85 -21 -154c-25 -124 -44 -214 -110 -280c-56 -56 -138 -82 -204 -82c-42 0 -79 7 -108 22l-40 -60h-114l78 119c-28 36 -42 82 -42 127c0 32 7 85 21 154c25 124 44 214 110 280c56 56 138 82 204 82
c42 0 78 -8 108 -22l39 60h114zM407 559c-12 9 -27 13 -43 13c-28 0 -56 -14 -74 -34c-22 -24 -35 -61 -60 -182c-5 -27 -13 -65 -16 -96zM433 455l-193 -303c12 -9 27 -12 43 -12c28 0 56 14 74 34c22 24 35 61 60 182c6 27 13 66 16 99z" />
    <glyph glyph-name="OE" unicode="&#x152;" horiz-adv-x="907" 
d="M944 712l-29 -147h-294l-26 -132h252l-30 -147h-251l-28 -139h297l-29 -147h-444l7 38c-25 -26 -55 -44 -109 -44c-121 0 -216 84 -216 208c0 32 7 85 21 154c25 124 44 214 110 280c63 63 142 82 200 82c49 0 92 -17 113 -44l7 38h449zM434 495c0 48 -28 77 -70 77
c-28 0 -54 -15 -72 -34c-22 -24 -35 -61 -61 -182c-12 -56 -20 -108 -20 -139c0 -48 28 -77 70 -77c28 0 54 15 72 34c22 24 35 61 61 182c12 56 20 108 20 139z" />
    <glyph glyph-name="ordmasculine" unicode="&#xba;" horiz-adv-x="443" 
d="M450 576c0 -26 -4 -58 -8 -78c-16 -86 -36 -130 -75 -169c-31 -31 -78 -51 -137 -51c-74 0 -149 46 -149 143c0 26 5 57 9 77c16 86 35 130 74 169c31 31 78 51 137 51c74 0 149 -45 149 -142zM326 560c0 28 -12 45 -38 45c-17 0 -30 -5 -40 -16c-17 -17 -26 -48 -34 -91
s-9 -56 -9 -62c0 -28 12 -45 38 -45c17 0 30 5 40 16c17 17 26 48 34 91s9 56 9 62z" />
    <glyph glyph-name="ae" unicode="&#xe6;" horiz-adv-x="803" 
d="M776 349c0 -41 -8 -87 -18 -129h-310c-1 -10 -2 -16 -2 -23c0 -43 26 -72 79 -72c45 0 82 18 115 50l78 -102c-54 -52 -133 -79 -212 -79c-54 0 -121 16 -164 65c-59 -53 -116 -65 -168 -65c-114 0 -171 63 -171 148c0 55 17 97 46 126c37 37 93 55 159 55h112l4 19
c1 7 3 16 3 25c0 27 -17 47 -64 47c-45 0 -80 -20 -100 -43l-78 104c41 39 98 69 203 69c54 0 105 -14 144 -44c39 27 88 44 143 44c114 0 201 -68 201 -195zM628 349c0 40 -21 67 -62 67s-78 -24 -98 -93h157c2 8 3 17 3 26zM299 220h-76c-45 0 -67 -30 -67 -60
c0 -22 16 -40 47 -40c29 0 52 13 67 28c14 14 22 35 26 57z" />
    <glyph glyph-name="dotlessi" unicode="&#x131;" horiz-adv-x="274" 
d="M270 538l-107 -538h-156l107 538h156z" />
    <glyph glyph-name="lslash" unicode="&#x142;" horiz-adv-x="334" 
d="M329 542l-28 -139l-51 -30l-41 -203c-1 -6 -2 -9 -2 -15c0 -15 10 -23 29 -23h57l-27 -132h-77c-89 0 -140 55 -140 125c0 16 1 29 4 44l22 111l-53 -31l27 139l53 30l59 294h155l-40 -200z" />
    <glyph glyph-name="oslash" unicode="&#xf8;" horiz-adv-x="526" 
d="M543 582l-80 -108c21 -28 34 -63 34 -108c0 -33 -6 -72 -11 -97c-20 -107 -44 -162 -93 -211c-38 -38 -99 -64 -173 -64c-35 0 -74 8 -101 25l-46 -63h-89l81 108c-21 28 -34 64 -34 108c0 33 6 72 11 97c20 107 44 162 93 211c38 38 99 64 173 64c35 0 71 -9 101 -25
l46 63h88zM323 394c-8 6 -18 9 -31 9c-56 0 -78 -48 -95 -134c-5 -26 -8 -47 -10 -59zM341 328l-136 -184c8 -6 18 -9 31 -9c56 0 78 48 95 134c5 26 9 48 10 59z" />
    <glyph glyph-name="oe" unicode="&#x153;" horiz-adv-x="823" 
d="M796 348c0 -41 -8 -87 -18 -129h-310c-1 -10 -2 -15 -2 -22c0 -43 26 -72 79 -72c45 0 82 18 115 50l78 -102c-54 -52 -133 -79 -212 -79c-49 0 -109 14 -152 52c-38 -31 -92 -52 -157 -52c-93 0 -187 57 -187 178c0 33 6 72 11 97c20 107 44 162 93 211
c38 38 97 64 171 64c50 0 100 -18 136 -52c41 32 93 52 154 52c114 0 201 -69 201 -196zM648 348c0 41 -21 68 -62 68s-78 -25 -98 -94h157c2 8 3 20 3 26zM337 347c0 35 -16 56 -48 56c-20 0 -36 -6 -48 -18c-22 -21 -34 -61 -45 -116c-10 -53 -11 -71 -11 -78
c0 -35 16 -56 48 -56c20 0 36 6 48 18c22 21 34 61 45 116c10 53 11 71 11 78z" />
    <glyph glyph-name="germandbls" unicode="&#xdf;" horiz-adv-x="557" 
d="M567 560c0 -45 -22 -107 -83 -138c28 -18 40 -42 40 -75c0 -5 -1 -15 -2 -22l-28 -152c-23 -125 -80 -173 -198 -173h-60l26 131h19c14 0 28 4 37 12c10 8 17 25 20 40l26 135c1 6 2 11 2 16c0 23 -12 32 -36 32h-23l24 120h25c33 0 52 27 52 55c0 9 -1 16 -6 24
c-6 9 -22 18 -47 18c-59 0 -80 -27 -89 -73l-102 -510h-157l105 524c32 161 132 194 261 194c114 0 194 -54 194 -158z" />
    <glyph glyph-name="eth" unicode="&#xf0;" horiz-adv-x="522" 
d="M506 674l-21 -108h-41l15 -59c20 -79 26 -111 26 -152c0 -23 -3 -55 -11 -96c-9 -47 -23 -144 -93 -208c-36 -33 -93 -57 -163 -57c-102 0 -181 61 -181 176c0 15 3 51 11 89c20 101 39 153 89 204c20 20 48 38 83 49c22 7 47 11 74 11l-11 43h-112l22 108h60l-12 49h162
l12 -49h91zM329 338c0 42 -25 47 -41 47c-19 0 -32 -6 -42 -15c-22 -19 -32 -62 -42 -111c-6 -30 -11 -57 -11 -79c0 -42 25 -47 41 -47c19 0 32 6 42 15c22 19 32 62 42 111c6 30 11 57 11 79z" />
    <glyph glyph-name="Scaron" unicode="&#x160;" horiz-adv-x="565" 
d="M591 629l-116 -102c-30 37 -69 46 -116 46c-68 0 -107 -42 -107 -78c0 -38 32 -46 61 -54l54 -14c125 -32 166 -90 166 -192c0 -172 -143 -241 -295 -241c-119 0 -190 27 -252 98l120 105c35 -40 85 -56 147 -56c65 0 113 36 113 77c0 38 -21 51 -60 61l-54 14
c-144 37 -166 120 -166 175c0 156 121 250 292 250c89 0 168 -31 213 -89zM590 961l-165 -179h-120l-94 179h110l56 -87l93 87h120z" />
    <glyph glyph-name="scaron" unicode="&#x161;" horiz-adv-x="477" 
d="M474 474l-106 -94c-19 24 -61 36 -90 36c-51 0 -72 -19 -72 -41c0 -15 10 -25 33 -29l68 -12c96 -17 130 -73 130 -144c0 -61 -26 -105 -60 -137c-45 -43 -121 -59 -189 -59c-100 0 -164 30 -212 82l111 98c22 -26 56 -46 111 -46s84 22 84 44c0 19 -14 28 -37 32l-68 12
c-90 16 -127 70 -127 124s19 103 57 141c42 42 108 63 184 63c79 0 135 -18 183 -70zM523 789l-165 -179h-120l-94 179h110l56 -87l93 87h120z" />
    <glyph glyph-name="Yacute" unicode="&#xdd;" horiz-adv-x="585" 
d="M669 712l-288 -427l-57 -285h-166l58 290l-134 422h178l65 -266l161 266h183zM545 957l-145 -177h-95l81 177h159z" />
    <glyph glyph-name="yacute" unicode="&#xfd;" horiz-adv-x="488" 
d="M547 538l-324 -602c-10 -18 -26 -44 -44 -62c-38 -39 -81 -54 -136 -54h-58l29 142h32c29 0 44 18 60 48l23 43l-75 485h154l30 -300l145 300h164zM491 785l-145 -177h-95l81 177h159z" />
    <glyph glyph-name="Thorn" unicode="&#xde;" horiz-adv-x="596" 
d="M589 386c0 -123 -92 -250 -270 -250h-110l-27 -136h-166l143 712h166l-26 -128h93c115 0 197 -74 197 -198zM422 371c0 37 -16 66 -59 66h-93l-31 -154h87c75 0 96 62 96 88z" />
    <glyph glyph-name="thorn" unicode="&#xfe;" horiz-adv-x="542" 
d="M519 405c0 -24 -1 -50 -18 -136c-24 -120 -44 -186 -82 -224c-41 -41 -87 -51 -132 -51c-60 0 -96 22 -115 46l-44 -214h-156l177 886h156l-42 -209c21 19 61 41 117 41c113 0 139 -91 139 -139zM356 350c0 16 -2 53 -47 53c-58 0 -75 -43 -93 -134
c-5 -25 -11 -61 -11 -81c0 -16 2 -53 47 -53c58 0 75 43 93 134c5 25 11 61 11 81z" />
    <glyph glyph-name="Zcaron" unicode="&#x17d;" horiz-adv-x="522" 
d="M580 712l-26 -127l-341 -438h260l-30 -147h-465l26 127l340 438h-247l29 147h454zM576 961l-165 -179h-120l-94 179h110l56 -87l93 87h120z" />
    <glyph glyph-name="zcaron" unicode="&#x17e;" horiz-adv-x="473" 
d="M489 538l-23 -116l-249 -281h199l-28 -141h-409l24 116l245 281h-184l28 141h397zM528 789l-165 -179h-120l-94 179h110l56 -87l93 87h120z" />
    <glyph glyph-name="onehalf" unicode="&#xbd;" horiz-adv-x="866" 
d="M840 315c0 -55 -31 -92 -81 -135l-95 -82h140l-19 -98h-278l20 98l170 154c23 21 33 34 33 53c0 15 -7 28 -24 28c-24 0 -31 -15 -34 -33h-110c15 79 64 131 156 131c75 0 122 -42 122 -116zM719 712l-464 -712h-123l464 712h123zM324 712l-85 -427h-111l59 297l-108 -76
l27 130l108 76h110z" />
    <glyph glyph-name="onequarter" unicode="&#xbc;" horiz-adv-x="834" 
d="M781 427l-186 -267h51l8 38h104l-8 -38h26l-20 -103h-26l-11 -57h-104l12 57h-173l20 103l185 267h122zM719 712l-464 -712h-123l464 712h123zM324 712l-85 -427h-111l59 297l-108 -76l27 130l108 76h110z" />
    <glyph glyph-name="onesuperior" unicode="&#xb9;" horiz-adv-x="295" 
d="M324 712l-85 -427h-111l59 297l-105 -74l27 130l105 74h110z" />
    <glyph glyph-name="threequarters" unicode="&#xbe;" horiz-adv-x="863" 
d="M810 427l-186 -267h51l8 38h104l-8 -38h26l-20 -103h-26l-11 -57h-104l12 57h-173l20 103l185 267h122zM748 712l-464 -712h-123l464 712h123zM383 600c0 -37 -13 -74 -58 -100c18 -17 28 -37 28 -75c0 -90 -67 -144 -155 -144c-90 0 -130 47 -130 101c0 16 1 25 3 36
h108c-4 -24 3 -39 25 -39c24 0 37 20 37 45c0 22 -12 33 -27 33h-13l18 93h11c34 0 41 29 41 42c0 18 -10 26 -22 26c-17 0 -32 -12 -34 -34h-111c15 95 75 132 159 132c71 0 120 -47 120 -116z" />
    <glyph glyph-name="threesuperior" unicode="&#xb3;" horiz-adv-x="356" 
d="M383 600c0 -37 -13 -74 -58 -100c18 -17 28 -37 28 -75c0 -90 -67 -144 -155 -144c-90 0 -130 47 -130 101c0 16 1 25 3 36h108c-4 -24 3 -39 25 -39c24 0 37 20 37 45c0 22 -12 33 -27 33h-13l18 93h11c34 0 41 29 41 42c0 18 -10 26 -22 26c-17 0 -32 -12 -34 -34h-111
c15 95 75 132 159 132c71 0 120 -47 120 -116z" />
    <glyph glyph-name="twosuperior" unicode="&#xb2;" horiz-adv-x="349" 
d="M378 600c0 -55 -31 -92 -81 -135l-95 -82h140l-19 -98h-278l20 98l170 154c23 21 33 34 33 53c0 15 -7 28 -24 28c-24 0 -31 -15 -34 -33h-110c15 79 64 131 156 131c75 0 122 -42 122 -116z" />
    <glyph glyph-name="brokenbar" unicode="&#xa6;" horiz-adv-x="346" 
d="M356 786l-70 -350h-156l70 350h156zM254 276l-70 -350h-156l70 350h156z" />
    <glyph glyph-name="minus" unicode="&#x2212;" 
d="M503 367l-29 -144h-435l29 144h435z" />
    <glyph glyph-name="multiply" unicode="&#xd7;" 
d="M525 425l-156 -135l102 -133l-114 -99l-101 135l-155 -136l-83 109l155 134l-102 135l115 99l101 -135l155 135z" />
    <glyph glyph-name="Adieresis" unicode="&#xc4;" horiz-adv-x="622" 
d="M570 0h-169l-10 112h-211l-55 -112h-177l388 712h129zM378 247l-22 210l-108 -210h130zM607 921l-28 -142h-128l29 142h127zM392 921l-28 -142h-127l28 142h127z" />
    <glyph glyph-name="Aring" unicode="&#xc5;" horiz-adv-x="622" 
d="M570 0h-169l-10 112h-211l-55 -112h-177l388 712h129zM378 247l-22 210l-108 -210h130zM539 887c0 -76 -60 -132 -132 -132s-132 56 -132 132s60 132 132 132s132 -55 132 -132zM458 887c0 28 -24 51 -51 51s-51 -23 -51 -51s24 -51 51 -51s51 23 51 51z" />
    <glyph glyph-name="Ccedilla" unicode="&#xc7;" horiz-adv-x="583" 
d="M601 491h-166c-1 41 -15 81 -69 81c-36 0 -54 -13 -72 -31c-23 -23 -40 -73 -63 -185c-8 -41 -19 -103 -19 -140c0 -49 28 -76 72 -76c53 0 84 40 100 81h171c-52 -156 -157 -227 -284 -227c-150 0 -227 101 -227 208c0 32 7 85 21 154c25 124 42 213 108 279
c63 63 138 83 204 83c153 0 224 -102 224 -227zM326 -56l-61 -142h-140l91 142h110z" />
    <glyph glyph-name="Eacute" unicode="&#xc9;" horiz-adv-x="581" 
d="M618 712l-29 -146h-293l-27 -134h253l-29 -146h-253l-28 -140h299l-29 -146h-466l143 712h459zM549 957l-145 -177h-95l81 177h159z" />
    <glyph glyph-name="Ntilde" unicode="&#xd1;" horiz-adv-x="667" 
d="M689 712l-143 -712h-138l-151 370l-75 -370h-166l143 712h138l152 -371l74 371h166zM605 850c-38 -36 -70 -55 -119 -55c-38 0 -61 10 -82 21c-19 10 -34 16 -53 16c-28 0 -47 -14 -62 -29l-54 72c38 36 70 55 119 55c38 0 61 -10 82 -21c19 -10 34 -16 53 -16
c28 0 47 14 62 29z" />
    <glyph glyph-name="Odieresis" unicode="&#xd6;" horiz-adv-x="608" 
d="M601 510c0 -32 -7 -85 -21 -154c-25 -124 -44 -214 -110 -280c-56 -56 -136 -82 -202 -82c-147 0 -224 101 -224 208c0 32 7 85 21 154c25 124 44 214 110 280c55 56 136 82 202 82c147 0 224 -101 224 -208zM433 496c0 49 -30 76 -70 76c-28 0 -54 -14 -72 -34
c-22 -24 -35 -61 -60 -182c-8 -41 -19 -103 -19 -140c0 -49 30 -76 70 -76c28 0 54 14 72 34c22 24 35 61 60 182c8 41 19 103 19 140zM597 921l-28 -142h-128l29 142h127zM382 921l-28 -142h-127l28 142h127z" />
    <glyph glyph-name="Udieresis" unicode="&#xdc;" horiz-adv-x="627" 
d="M660 712l-93 -463c-37 -186 -162 -255 -289 -255c-136 0 -227 87 -227 208c0 18 3 48 6 62l90 448h166l-92 -457c-2 -12 -4 -27 -4 -40c0 -40 21 -74 71 -74c68 0 101 48 116 122l90 449h166zM611 921l-28 -142h-128l29 142h127zM396 921l-28 -142h-127l28 142h127z" />
    <glyph glyph-name="aacute" unicode="&#xe1;" horiz-adv-x="513" 
d="M485 389c0 -16 -3 -35 -6 -50l-68 -339h-150l9 44c-25 -25 -63 -49 -117 -49c-98 0 -150 74 -150 147c0 57 18 100 48 129c38 37 95 54 157 54h112l4 19c2 8 3 14 3 23c0 27 -17 47 -64 47c-45 0 -80 -20 -100 -43l-78 104c41 39 98 69 203 69c98 0 197 -42 197 -155z
M299 221h-76c-45 0 -67 -31 -67 -61c0 -22 16 -40 47 -40c29 0 52 13 67 28c14 14 22 36 26 58zM503 785l-145 -177h-95l81 177h159z" />
    <glyph glyph-name="agrave" unicode="&#xe0;" horiz-adv-x="513" 
d="M485 389c0 -16 -3 -35 -6 -50l-68 -339h-150l9 44c-25 -25 -63 -49 -117 -49c-98 0 -150 74 -150 147c0 57 18 100 48 129c38 37 95 54 157 54h112l4 19c2 8 3 14 3 23c0 27 -17 47 -64 47c-45 0 -80 -20 -100 -43l-78 104c41 39 98 69 203 69c98 0 197 -42 197 -155z
M299 221h-76c-45 0 -67 -31 -67 -61c0 -22 16 -40 47 -40c29 0 52 13 67 28c14 14 22 36 26 58zM371 608h-91l-75 177h156z" />
    <glyph glyph-name="acircumflex" unicode="&#xe2;" horiz-adv-x="513" 
d="M485 389c0 -16 -3 -35 -6 -50l-68 -339h-150l9 44c-25 -25 -63 -49 -117 -49c-98 0 -150 74 -150 147c0 57 18 100 48 129c38 37 95 54 157 54h112l4 19c2 8 3 14 3 23c0 27 -17 47 -64 47c-45 0 -80 -20 -100 -43l-78 104c41 39 98 69 203 69c98 0 197 -42 197 -155z
M299 221h-76c-45 0 -67 -31 -67 -61c0 -22 16 -40 47 -40c29 0 52 13 67 28c14 14 22 36 26 58zM509 610h-109l-56 87l-93 -87h-120l165 179h120z" />
    <glyph glyph-name="adieresis" unicode="&#xe4;" horiz-adv-x="513" 
d="M485 389c0 -16 -3 -35 -6 -50l-68 -339h-150l9 44c-25 -25 -63 -49 -117 -49c-98 0 -150 74 -150 147c0 57 18 100 48 129c38 37 95 54 157 54h112l4 19c2 8 3 14 3 23c0 27 -17 47 -64 47c-45 0 -80 -20 -100 -43l-78 104c41 39 98 69 203 69c98 0 197 -42 197 -155z
M299 221h-76c-45 0 -67 -31 -67 -61c0 -22 16 -40 47 -40c29 0 52 13 67 28c14 14 22 36 26 58zM527 749l-28 -142h-128l29 142h127zM312 749l-28 -142h-127l28 142h127z" />
    <glyph glyph-name="atilde" unicode="&#xe3;" horiz-adv-x="513" 
d="M485 389c0 -16 -3 -35 -6 -50l-68 -339h-150l9 44c-25 -25 -63 -49 -117 -49c-98 0 -150 74 -150 147c0 57 18 100 48 129c38 37 95 54 157 54h112l4 19c2 8 3 14 3 23c0 27 -17 47 -64 47c-45 0 -80 -20 -100 -43l-78 104c41 39 98 69 203 69c98 0 197 -42 197 -155z
M299 221h-76c-45 0 -67 -31 -67 -61c0 -22 16 -40 47 -40c29 0 52 13 67 28c14 14 22 36 26 58zM518 678c-38 -36 -70 -55 -119 -55c-38 0 -61 10 -82 21c-19 10 -34 16 -53 16c-28 0 -47 -14 -62 -29l-54 72c38 36 70 55 119 55c38 0 61 -10 82 -21c19 -10 34 -16 53 -16
c28 0 47 14 62 29z" />
    <glyph glyph-name="aring" unicode="&#xe5;" horiz-adv-x="513" 
d="M485 389c0 -16 -3 -35 -6 -50l-68 -339h-150l9 44c-25 -25 -63 -49 -117 -49c-98 0 -150 74 -150 147c0 57 18 100 48 129c38 37 95 54 157 54h112l4 19c2 8 3 14 3 23c0 27 -17 47 -64 47c-45 0 -80 -20 -100 -43l-78 104c41 39 98 69 203 69c98 0 197 -42 197 -155z
M299 221h-76c-45 0 -67 -31 -67 -61c0 -22 16 -40 47 -40c29 0 52 13 67 28c14 14 22 36 26 58zM471 725c0 -76 -60 -132 -132 -132s-132 56 -132 132s60 132 132 132s132 -55 132 -132zM390 725c0 28 -24 51 -51 51s-51 -23 -51 -51s24 -51 51 -51s51 23 51 51z" />
    <glyph glyph-name="ccedilla" unicode="&#xe7;" horiz-adv-x="453" 
d="M471 472l-118 -104c-16 21 -33 35 -57 35c-20 0 -39 -8 -54 -24c-22 -23 -39 -61 -48 -110c-4 -21 -7 -41 -7 -63c0 -39 11 -71 54 -71c28 0 51 13 74 36l86 -113c-43 -38 -106 -64 -177 -64c-89 0 -194 54 -194 191c0 28 3 57 8 84c44 240 179 275 273 275
c80 0 129 -34 160 -72zM266 -56l-61 -142h-140l91 142h110z" />
    <glyph glyph-name="eacute" unicode="&#xe9;" horiz-adv-x="533" 
d="M506 348c0 -41 -8 -87 -18 -129h-310c-1 -10 -2 -15 -2 -22c0 -43 26 -72 79 -72c45 0 82 18 115 50l78 -102c-54 -52 -133 -79 -212 -79c-87 0 -208 40 -208 191c0 191 95 359 277 359c114 0 201 -72 201 -196zM358 348c0 41 -21 68 -62 68s-78 -25 -98 -94h157
c2 8 3 20 3 26zM520 785l-145 -177h-95l81 177h159z" />
    <glyph glyph-name="egrave" unicode="&#xe8;" horiz-adv-x="533" 
d="M506 348c0 -41 -8 -87 -18 -129h-310c-1 -10 -2 -15 -2 -22c0 -43 26 -72 79 -72c45 0 82 18 115 50l78 -102c-54 -52 -133 -79 -212 -79c-87 0 -208 40 -208 191c0 191 95 359 277 359c114 0 201 -72 201 -196zM358 348c0 41 -21 68 -62 68s-78 -25 -98 -94h157
c2 8 3 20 3 26zM388 608h-91l-75 177h156z" />
    <glyph glyph-name="ecircumflex" unicode="&#xea;" horiz-adv-x="533" 
d="M506 348c0 -41 -8 -87 -18 -129h-310c-1 -10 -2 -15 -2 -22c0 -43 26 -72 79 -72c45 0 82 18 115 50l78 -102c-54 -52 -133 -79 -212 -79c-87 0 -208 40 -208 191c0 191 95 359 277 359c114 0 201 -72 201 -196zM358 348c0 41 -21 68 -62 68s-78 -25 -98 -94h157
c2 8 3 20 3 26zM524 610h-109l-56 87l-93 -87h-120l165 179h120z" />
    <glyph glyph-name="edieresis" unicode="&#xeb;" horiz-adv-x="533" 
d="M506 348c0 -41 -8 -87 -18 -129h-310c-1 -10 -2 -15 -2 -22c0 -43 26 -72 79 -72c45 0 82 18 115 50l78 -102c-54 -52 -133 -79 -212 -79c-87 0 -208 40 -208 191c0 191 95 359 277 359c114 0 201 -72 201 -196zM358 348c0 41 -21 68 -62 68s-78 -25 -98 -94h157
c2 8 3 20 3 26zM534 749l-28 -142h-128l29 142h127zM319 749l-28 -142h-127l28 142h127z" />
    <glyph glyph-name="icircumflex" unicode="&#xee;" horiz-adv-x="274" 
d="M270 538l-107 -538h-156l107 538h156zM392 610h-109l-56 87l-93 -87h-120l165 179h120z" />
    <glyph glyph-name="idieresis" unicode="&#xef;" horiz-adv-x="274" 
d="M270 538l-107 -538h-156l107 538h156zM402 749l-28 -142h-128l29 142h127zM187 749l-28 -142h-127l28 142h127z" />
    <glyph glyph-name="ntilde" unicode="&#xf1;" horiz-adv-x="550" 
d="M518 396c0 -22 -3 -44 -7 -62l-67 -334h-156l65 325c2 9 3 19 3 27c0 36 -25 51 -45 51c-36 0 -71 -18 -83 -78l-65 -325h-156l107 538h149l-9 -47c34 34 85 53 132 53c53 0 132 -36 132 -148zM542 678c-38 -36 -70 -55 -119 -55c-38 0 -61 10 -82 21
c-19 10 -34 16 -53 16c-28 0 -47 -14 -62 -29l-54 72c38 36 70 55 119 55c38 0 61 -10 82 -21c19 -10 34 -16 53 -16c28 0 47 14 62 29z" />
    <glyph glyph-name="oacute" unicode="&#xf3;" horiz-adv-x="522" 
d="M492 366c0 -33 -6 -72 -11 -97c-20 -107 -44 -162 -93 -211c-38 -38 -97 -64 -171 -64c-93 0 -187 57 -187 178c0 33 6 72 11 97c20 107 44 162 93 211c38 38 97 64 171 64c93 0 187 -57 187 -178zM337 347c0 35 -16 56 -48 56c-20 0 -36 -6 -48 -18
c-22 -21 -34 -61 -45 -116c-10 -53 -11 -71 -11 -78c0 -35 16 -56 48 -56c20 0 36 6 48 18c22 21 34 61 45 116c10 53 11 71 11 78zM513 785l-145 -177h-95l81 177h159z" />
    <glyph glyph-name="ograve" unicode="&#xf2;" horiz-adv-x="522" 
d="M492 366c0 -33 -6 -72 -11 -97c-20 -107 -44 -162 -93 -211c-38 -38 -97 -64 -171 -64c-93 0 -187 57 -187 178c0 33 6 72 11 97c20 107 44 162 93 211c38 38 97 64 171 64c93 0 187 -57 187 -178zM337 347c0 35 -16 56 -48 56c-20 0 -36 -6 -48 -18
c-22 -21 -34 -61 -45 -116c-10 -53 -11 -71 -11 -78c0 -35 16 -56 48 -56c20 0 36 6 48 18c22 21 34 61 45 116c10 53 11 71 11 78zM381 608h-91l-75 177h156z" />
    <glyph glyph-name="ocircumflex" unicode="&#xf4;" horiz-adv-x="522" 
d="M492 366c0 -33 -6 -72 -11 -97c-20 -107 -44 -162 -93 -211c-38 -38 -97 -64 -171 -64c-93 0 -187 57 -187 178c0 33 6 72 11 97c20 107 44 162 93 211c38 38 97 64 171 64c93 0 187 -57 187 -178zM337 347c0 35 -16 56 -48 56c-20 0 -36 -6 -48 -18
c-22 -21 -34 -61 -45 -116c-10 -53 -11 -71 -11 -78c0 -35 16 -56 48 -56c20 0 36 6 48 18c22 21 34 61 45 116c10 53 11 71 11 78zM517 610h-109l-56 87l-93 -87h-120l165 179h120z" />
    <glyph glyph-name="odieresis" unicode="&#xf6;" horiz-adv-x="522" 
d="M492 366c0 -33 -6 -72 -11 -97c-20 -107 -44 -162 -93 -211c-38 -38 -97 -64 -171 -64c-93 0 -187 57 -187 178c0 33 6 72 11 97c20 107 44 162 93 211c38 38 97 64 171 64c93 0 187 -57 187 -178zM337 347c0 35 -16 56 -48 56c-20 0 -36 -6 -48 -18
c-22 -21 -34 -61 -45 -116c-10 -53 -11 -71 -11 -78c0 -35 16 -56 48 -56c20 0 36 6 48 18c22 21 34 61 45 116c10 53 11 71 11 78zM527 749l-28 -142h-128l29 142h127zM312 749l-28 -142h-127l28 142h127z" />
    <glyph glyph-name="otilde" unicode="&#xf5;" horiz-adv-x="522" 
d="M492 366c0 -33 -6 -72 -11 -97c-20 -107 -44 -162 -93 -211c-38 -38 -97 -64 -171 -64c-93 0 -187 57 -187 178c0 33 6 72 11 97c20 107 44 162 93 211c38 38 97 64 171 64c93 0 187 -57 187 -178zM337 347c0 35 -16 56 -48 56c-20 0 -36 -6 -48 -18
c-22 -21 -34 -61 -45 -116c-10 -53 -11 -71 -11 -78c0 -35 16 -56 48 -56c20 0 36 6 48 18c22 21 34 61 45 116c10 53 11 71 11 78zM527 678c-38 -36 -70 -55 -119 -55c-38 0 -61 10 -82 21c-19 10 -34 16 -53 16c-28 0 -47 -14 -62 -29l-54 72c38 36 70 55 119 55
c38 0 61 -10 82 -21c19 -10 34 -16 53 -16c28 0 47 14 62 29z" />
    <glyph glyph-name="uacute" unicode="&#xfa;" horiz-adv-x="550" 
d="M545 538l-107 -538h-149l9 47c-34 -34 -85 -53 -132 -53c-53 0 -132 36 -132 148c0 22 3 44 7 62l67 334h156l-65 -325c-2 -9 -3 -19 -3 -27c0 -36 25 -51 45 -51c36 0 71 18 83 78l65 325h156zM518 785l-145 -177h-95l81 177h159z" />
    <glyph glyph-name="ugrave" unicode="&#xf9;" horiz-adv-x="550" 
d="M545 538l-107 -538h-149l9 47c-34 -34 -85 -53 -132 -53c-53 0 -132 36 -132 148c0 22 3 44 7 62l67 334h156l-65 -325c-2 -9 -3 -19 -3 -27c0 -36 25 -51 45 -51c36 0 71 18 83 78l65 325h156zM386 608h-91l-75 177h156z" />
    <glyph glyph-name="ucircumflex" unicode="&#xfb;" horiz-adv-x="550" 
d="M545 538l-107 -538h-149l9 47c-34 -34 -85 -53 -132 -53c-53 0 -132 36 -132 148c0 22 3 44 7 62l67 334h156l-65 -325c-2 -9 -3 -19 -3 -27c0 -36 25 -51 45 -51c36 0 71 18 83 78l65 325h156zM522 610h-109l-56 87l-93 -87h-120l165 179h120z" />
    <glyph glyph-name="udieresis" unicode="&#xfc;" horiz-adv-x="550" 
d="M545 538l-107 -538h-149l9 47c-34 -34 -85 -53 -132 -53c-53 0 -132 36 -132 148c0 22 3 44 7 62l67 334h156l-65 -325c-2 -9 -3 -19 -3 -27c0 -36 25 -51 45 -51c36 0 71 18 83 78l65 325h156zM535 749l-28 -142h-128l29 142h127zM320 749l-28 -142h-127l28 142h127z
" />
    <glyph glyph-name="degree" unicode="&#xb0;" horiz-adv-x="462" 
d="M474 534c0 -108 -80 -188 -188 -188s-188 80 -188 188s80 188 188 188s188 -80 188 -188zM351 534c0 36 -29 65 -65 65s-65 -29 -65 -65s29 -65 65 -65s65 29 65 65z" />
    <glyph glyph-name="registered" unicode="&#xae;" horiz-adv-x="781" 
d="M754 356c0 -190 -154 -344 -344 -344s-344 154 -344 344s154 344 344 344s344 -154 344 -344zM656 356c0 148 -105 252 -246 252s-246 -104 -246 -252s105 -252 246 -252s246 104 246 252zM571 176h-112l-54 134h-29v-134h-98v360h160c80 0 123 -57 123 -116
c0 -48 -29 -79 -58 -93zM463 420c0 19 -14 36 -38 36h-49v-72h49c24 0 38 17 38 36z" />
    <glyph glyph-name="copyright" unicode="&#xa9;" horiz-adv-x="781" 
d="M754 356c0 -190 -154 -344 -344 -344s-344 154 -344 344s154 344 344 344s344 -154 344 -344zM656 356c0 148 -105 252 -246 252s-246 -104 -246 -252s105 -252 246 -252s246 104 246 252zM544 223c-34 -29 -73 -49 -125 -49c-86 0 -172 54 -172 182s86 182 172 182
c52 0 91 -20 125 -49l-64 -64c-22 18 -36 26 -61 26c-44 0 -75 -31 -75 -95s31 -95 75 -95c25 0 39 8 61 26z" />
    <glyph glyph-name="trademark" unicode="&#x2122;" horiz-adv-x="924" 
d="M951 712l-84 -427h-112l44 219l-89 -125h-94l-40 125l-44 -219h-111l84 427h109l69 -210l155 210h113zM446 712l-19 -99h-98l-66 -328h-110l66 328h-102l20 99h309z" />
    <glyph glyph-name="plusminus" unicode="&#xb1;" 
d="M532 511l-29 -145h-146l-31 -156h-146l31 156h-143l29 145h143l31 156h147l-32 -156h146zM460 145l-29 -145h-435l29 145h435z" />
    <glyph glyph-name="mu" unicode="&#xb5;" horiz-adv-x="555" 
d="M550 538l-107 -538h-149l9 47c-34 -34 -85 -53 -132 -53h-10l-34 -168h-156l142 712h156l-65 -325c-2 -9 -3 -19 -3 -27c0 -36 25 -51 45 -51c36 0 71 18 83 78l65 325h156z" />
    <glyph glyph-name="logicalnot" unicode="&#xac;" 
d="M513 390l-60 -300h-146l31 155h-300l29 145h446z" />
    <glyph glyph-name="nbspace" unicode="&#xa0;" horiz-adv-x="211" 
 />
    <glyph glyph-name="Agrave" unicode="&#xc0;" horiz-adv-x="622" 
d="M570 0h-169l-10 112h-211l-55 -112h-177l388 712h129zM378 247l-22 210l-108 -210h130zM442 780h-91l-75 177h156z" />
    <glyph glyph-name="Atilde" unicode="&#xc3;" horiz-adv-x="622" 
d="M570 0h-169l-10 112h-211l-55 -112h-177l388 712h129zM378 247l-22 210l-108 -210h130zM588 850c-38 -36 -70 -55 -119 -55c-38 0 -61 10 -82 21c-19 10 -34 16 -53 16c-28 0 -47 -14 -62 -29l-54 72c38 36 70 55 119 55c38 0 61 -10 82 -21c19 -10 34 -16 53 -16
c28 0 47 14 62 29z" />
    <glyph glyph-name="Otilde" unicode="&#xd5;" horiz-adv-x="608" 
d="M601 510c0 -32 -7 -85 -21 -154c-25 -124 -44 -214 -110 -280c-56 -56 -136 -82 -202 -82c-147 0 -224 101 -224 208c0 32 7 85 21 154c25 124 44 214 110 280c55 56 136 82 202 82c147 0 224 -101 224 -208zM433 496c0 49 -30 76 -70 76c-28 0 -54 -14 -72 -34
c-22 -24 -35 -61 -60 -182c-8 -41 -19 -103 -19 -140c0 -49 30 -76 70 -76c28 0 54 14 72 34c22 24 35 61 60 182c8 41 19 103 19 140zM582 850c-38 -36 -70 -55 -119 -55c-38 0 -61 10 -82 21c-19 10 -34 16 -53 16c-28 0 -47 -14 -62 -29l-54 72c38 36 70 55 119 55
c38 0 61 -10 82 -21c19 -10 34 -16 53 -16c28 0 47 14 62 29z" />
    <glyph glyph-name="divide" unicode="&#xf7;" 
d="M400 578l-30 -148h-148l29 148h149zM509 368l-29 -146h-447l29 146h447zM320 160l-29 -148h-149l30 148h148z" />
    <glyph glyph-name="ydieresis" unicode="&#xff;" horiz-adv-x="488" 
d="M547 538l-324 -602c-10 -18 -26 -44 -44 -62c-38 -39 -81 -54 -136 -54h-58l29 142h32c29 0 44 18 60 48l23 43l-75 485h154l30 -300l145 300h164zM513 749l-28 -142h-128l29 142h127zM298 749l-28 -142h-127l28 142h127z" />
    <glyph glyph-name="Ydieresis" unicode="&#x178;" horiz-adv-x="585" 
d="M669 712l-288 -427l-57 -285h-166l58 290l-134 422h178l65 -266l161 266h183zM575 921l-28 -142h-128l29 142h127zM360 921l-28 -142h-127l28 142h127z" />
    <glyph glyph-name="Acircumflex" unicode="&#xc2;" horiz-adv-x="622" 
d="M570 0h-169l-10 112h-211l-55 -112h-177l388 712h129zM378 247l-22 210l-108 -210h130zM592 782h-109l-56 87l-93 -87h-120l165 179h120z" />
    <glyph glyph-name="Ecircumflex" unicode="&#xca;" horiz-adv-x="581" 
d="M618 712l-29 -146h-293l-27 -134h253l-29 -146h-253l-28 -140h299l-29 -146h-466l143 712h459zM570 782h-109l-56 87l-93 -87h-120l165 179h120z" />
    <glyph glyph-name="Aacute" unicode="&#xc1;" horiz-adv-x="622" 
d="M570 0h-169l-10 112h-211l-55 -112h-177l388 712h129zM378 247l-22 210l-108 -210h130zM575 957l-145 -177h-95l81 177h159z" />
    <glyph glyph-name="Edieresis" unicode="&#xcb;" horiz-adv-x="581" 
d="M618 712l-29 -146h-293l-27 -134h253l-29 -146h-253l-28 -140h299l-29 -146h-466l143 712h459zM580 921l-28 -142h-128l29 142h127zM365 921l-28 -142h-127l28 142h127z" />
    <glyph glyph-name="Egrave" unicode="&#xc8;" horiz-adv-x="581" 
d="M618 712l-29 -146h-293l-27 -134h253l-29 -146h-253l-28 -140h299l-29 -146h-466l143 712h459zM430 780h-91l-75 177h156z" />
    <glyph glyph-name="Iacute" unicode="&#xcd;" horiz-adv-x="303" 
d="M325 712l-143 -712h-166l143 712h166zM424 957l-145 -177h-95l81 177h159z" />
    <glyph glyph-name="Icircumflex" unicode="&#xce;" horiz-adv-x="303" 
d="M325 712l-143 -712h-166l143 712h166zM435 782h-109l-56 87l-93 -87h-120l165 179h120z" />
    <glyph glyph-name="Idieresis" unicode="&#xcf;" horiz-adv-x="303" 
d="M325 712l-143 -712h-166l143 712h166zM451 921l-28 -142h-128l29 142h127zM236 921l-28 -142h-127l28 142h127z" />
    <glyph glyph-name="Igrave" unicode="&#xcc;" horiz-adv-x="303" 
d="M325 712l-143 -712h-166l143 712h166zM304 780h-91l-75 177h156z" />
    <glyph glyph-name="Oacute" unicode="&#xd3;" horiz-adv-x="608" 
d="M601 510c0 -32 -7 -85 -21 -154c-25 -124 -44 -214 -110 -280c-56 -56 -136 -82 -202 -82c-147 0 -224 101 -224 208c0 32 7 85 21 154c25 124 44 214 110 280c55 56 136 82 202 82c147 0 224 -101 224 -208zM433 496c0 49 -30 76 -70 76c-28 0 -54 -14 -72 -34
c-22 -24 -35 -61 -60 -182c-8 -41 -19 -103 -19 -140c0 -49 30 -76 70 -76c28 0 54 14 72 34c22 24 35 61 60 182c8 41 19 103 19 140zM570 957l-145 -177h-95l81 177h159z" />
    <glyph glyph-name="Ocircumflex" unicode="&#xd4;" horiz-adv-x="608" 
d="M601 510c0 -32 -7 -85 -21 -154c-25 -124 -44 -214 -110 -280c-56 -56 -136 -82 -202 -82c-147 0 -224 101 -224 208c0 32 7 85 21 154c25 124 44 214 110 280c55 56 136 82 202 82c147 0 224 -101 224 -208zM433 496c0 49 -30 76 -70 76c-28 0 -54 -14 -72 -34
c-22 -24 -35 -61 -60 -182c-8 -41 -19 -103 -19 -140c0 -49 30 -76 70 -76c28 0 54 14 72 34c22 24 35 61 60 182c8 41 19 103 19 140zM578 782h-109l-56 87l-93 -87h-120l165 179h120z" />
    <glyph glyph-name="Ograve" unicode="&#xd2;" horiz-adv-x="608" 
d="M601 510c0 -32 -7 -85 -21 -154c-25 -124 -44 -214 -110 -280c-56 -56 -136 -82 -202 -82c-147 0 -224 101 -224 208c0 32 7 85 21 154c25 124 44 214 110 280c55 56 136 82 202 82c147 0 224 -101 224 -208zM433 496c0 49 -30 76 -70 76c-28 0 -54 -14 -72 -34
c-22 -24 -35 -61 -60 -182c-8 -41 -19 -103 -19 -140c0 -49 30 -76 70 -76c28 0 54 14 72 34c22 24 35 61 60 182c8 41 19 103 19 140zM438 780h-91l-75 177h156z" />
    <glyph glyph-name="Uacute" unicode="&#xda;" horiz-adv-x="627" 
d="M660 712l-93 -463c-37 -186 -162 -255 -289 -255c-136 0 -227 87 -227 208c0 18 3 48 6 62l90 448h166l-92 -457c-2 -12 -4 -27 -4 -40c0 -40 21 -74 71 -74c68 0 101 48 116 122l90 449h166zM584 957l-145 -177h-95l81 177h159z" />
    <glyph glyph-name="Ucircumflex" unicode="&#xdb;" horiz-adv-x="627" 
d="M660 712l-93 -463c-37 -186 -162 -255 -289 -255c-136 0 -227 87 -227 208c0 18 3 48 6 62l90 448h166l-92 -457c-2 -12 -4 -27 -4 -40c0 -40 21 -74 71 -74c68 0 101 48 116 122l90 449h166zM594 782h-109l-56 87l-93 -87h-120l165 179h120z" />
    <glyph glyph-name="Ugrave" unicode="&#xd9;" horiz-adv-x="627" 
d="M660 712l-93 -463c-37 -186 -162 -255 -289 -255c-136 0 -227 87 -227 208c0 18 3 48 6 62l90 448h166l-92 -457c-2 -12 -4 -27 -4 -40c0 -40 21 -74 71 -74c68 0 101 48 116 122l90 449h166zM452 780h-91l-75 177h156z" />
    <glyph glyph-name="Eth" unicode="&#xd0;" horiz-adv-x="645" 
d="M641 510c0 -29 -5 -60 -23 -154c-35 -178 -50 -223 -110 -283c-48 -48 -116 -73 -203 -73h-262l60 297h-62l25 126h62l58 289h239c131 0 216 -72 216 -202zM473 494c0 54 -36 72 -76 72h-74l-29 -143h85l-25 -126h-85l-31 -151h74c37 0 63 12 83 32c21 21 32 48 57 178
c16 82 21 121 21 138z" />
    <glyph glyph-name="eurocurrency" horiz-adv-x="447" 
d="M391 334c0 -90 -63 -153 -153 -153s-153 63 -153 153s63 153 153 153s153 -63 153 -153z" />
    <glyph glyph-name="Euro" unicode="&#x20ac;" horiz-adv-x="654" 
d="M652 491h-166c-1 41 -15 81 -69 81c-36 0 -54 -13 -72 -31c-11 -11 -21 -29 -31 -57h103l-19 -96h-109l-13 -62h111l-18 -96h-106v-14c0 -49 28 -76 72 -76c53 0 84 40 100 81h171c-52 -156 -157 -227 -284 -227c-150 0 -227 101 -227 208c0 13 1 21 2 28h-72l18 96h68
l12 62h-68l18 96h72c17 61 38 110 79 151c63 63 138 83 204 83c153 0 224 -102 224 -227z" />
    <glyph glyph-name="iacute" unicode="&#xed;" horiz-adv-x="274" 
d="M270 538l-107 -538h-156l107 538h156zM388 785l-145 -177h-95l81 177h159z" />
    <glyph glyph-name="igrave" unicode="&#xec;" horiz-adv-x="274" 
d="M270 538l-107 -538h-156l107 538h156zM256 608h-91l-75 177h156z" />
    </font>
</defs>
</svg>
